<?xml version="1.0" encoding="UTF-8"?> <svg xmlns="http://www.w3.org/2000/svg" width="125.251" height="36.732" viewBox="0 0 125.251 36.732"><defs><style>.a{fill:#00728f;}.b{fill:#1cbeca;fill-rule:evenodd;}</style></defs><path class="a" d="M28.425,21.186,22.584,6H8.826a11.322,11.322,0,0,0-6.49,1.687A5.416,5.416,0,0,0,0,12.1a5.689,5.689,0,0,0,.779,2.985,5.878,5.878,0,0,0,2.336,1.947,9.955,9.955,0,0,0,3.634,1.038l3.245.519a6.064,6.064,0,0,1,1.817.519,5.645,5.645,0,0,1,.909.779,2.445,2.445,0,0,1,.26,1.038,2.093,2.093,0,0,1-.389,1.168,1.89,1.89,0,0,1-1.168.779,5.762,5.762,0,0,1-2.336.26,7.66,7.66,0,0,1-1.817-.26,4.06,4.06,0,0,1-1.3-.649,1.745,1.745,0,0,1-.779-.909,2.406,2.406,0,0,1-.26-.909H0a3.653,3.653,0,0,0,.13,1.038,9.859,9.859,0,0,0,.519,1.428,5.431,5.431,0,0,0,1.038,1.558,5.533,5.533,0,0,0,1.558,1.428A8.8,8.8,0,0,0,5.711,26.9a12.694,12.694,0,0,0,3.375.389,12.617,12.617,0,0,0,4.024-.519,8.413,8.413,0,0,0,2.855-1.428,6.276,6.276,0,0,0,1.687-2.077,5.267,5.267,0,0,0,.519-2.466,5.394,5.394,0,0,0-1.687-4.283,9.635,9.635,0,0,0-4.932-2.077l-3.5-.519a7.477,7.477,0,0,1-2.207-.649A1.243,1.243,0,0,1,5.192,12.1c0-1.817,2.207-2.077,3.634-2.077H18.95l6.23,16.354.779,2.077-2.336,6.49h5.192L38.938,6H33.617Z" transform="translate(0 1.788)"></path><rect class="a" width="5.062" height="28.555" transform="translate(40.626)"></rect><path class="a" d="M72.073,8.066a9.323,9.323,0,0,0-2.6-1.817A9.037,9.037,0,0,0,66.233,5.6a7.982,7.982,0,0,0-1.817.13c-.519.13-1.038.26-1.428.389a5.261,5.261,0,0,0-1.168.649c-.26.13-.519.389-.779.519l-.649.649h-.26l-.26-1.817H55.2V26.886h5.062V14.815a6.2,6.2,0,0,1,.519-2.336A4.11,4.11,0,0,1,64.675,10.4a6.2,6.2,0,0,1,2.336.519,4.474,4.474,0,0,1,1.558,1.558,4.445,4.445,0,0,1,.519,2.336V26.886H74.41V14.426a10.656,10.656,0,0,0-.649-3.634A7.412,7.412,0,0,0,72.073,8.066Z" transform="translate(16.446 1.668)"></path><path class="a" d="M55.012,8.685a9.586,9.586,0,0,0-3.245-2.207A10.577,10.577,0,0,0,47.743,5.7a11.433,11.433,0,0,0-4.283.779,9.841,9.841,0,0,0-5.581,5.581,11.643,11.643,0,0,0-.779,4.413,12.639,12.639,0,0,0,.779,4.413,9.841,9.841,0,0,0,5.581,5.581,11.433,11.433,0,0,0,4.283.779,9.947,9.947,0,0,0,3.5-.519,12.112,12.112,0,0,0,2.6-1.3,7.586,7.586,0,0,0,1.817-1.687,10,10,0,0,0,1.168-1.687,8.949,8.949,0,0,0,.519-1.3H52.026a2.715,2.715,0,0,1-.519.779,5.646,5.646,0,0,1-.909.779,3.887,3.887,0,0,1-1.3.519,6.576,6.576,0,0,1-1.687.26,5.488,5.488,0,0,1-2.6-.649,6.11,6.11,0,0,1-1.947-1.687,7.774,7.774,0,0,1-1.038-2.6H57.607l.13-.519a1.411,1.411,0,0,1,.13-.649v-.779a11.242,11.242,0,0,0-.779-4.153A6.5,6.5,0,0,0,55.012,8.685Zm-12.72,5.971A6.414,6.414,0,0,1,43.33,12.32a5.656,5.656,0,0,1,1.817-1.687,4.73,4.73,0,0,1,2.726-.649,4.971,4.971,0,0,1,2.466.649,4.219,4.219,0,0,1,1.687,1.687,7.3,7.3,0,0,1,.909,2.336Z" transform="translate(11.054 1.698)"></path><path class="a" d="M79.851,20.386a1.474,1.474,0,0,1-.389-1.038V11.3L74.4,16.362v3.894a5.372,5.372,0,0,0,1.3,3.634,5.243,5.243,0,0,0,3.894,1.3h4.543V20.645H80.89A.94.94,0,0,1,79.851,20.386Z" transform="translate(22.167 3.367)"></path><path class="a" d="M98.854,16.733a9.634,9.634,0,0,0-4.932-2.077l-3.5-.519a7.477,7.477,0,0,1-2.206-.649,1.243,1.243,0,0,1-.649-1.168,2.093,2.093,0,0,1,.389-1.168,2.826,2.826,0,0,1,1.168-.909A4.551,4.551,0,0,1,91.2,9.853a4.942,4.942,0,0,1,2.077.389,3.534,3.534,0,0,1,1.3,1.038,2.306,2.306,0,0,1,.519,1.3h4.932a4.481,4.481,0,0,0-.389-1.687,6.506,6.506,0,0,0-1.038-1.817,6.94,6.94,0,0,0-1.687-1.687,7.236,7.236,0,0,0-2.466-1.168A12.133,12.133,0,0,0,91.2,5.7a11,11,0,0,0-3.764.519,9.066,9.066,0,0,0-2.726,1.428,6.276,6.276,0,0,0-1.687,2.077A5.267,5.267,0,0,0,82.5,12.19a5.689,5.689,0,0,0,.779,2.985,5.879,5.879,0,0,0,2.336,1.947,9.955,9.955,0,0,0,3.634,1.038l3.245.519a6.064,6.064,0,0,1,1.817.519,5.645,5.645,0,0,1,.909.779,2.445,2.445,0,0,1,.26,1.038,2.093,2.093,0,0,1-.389,1.168,1.89,1.89,0,0,1-1.168.779,5.762,5.762,0,0,1-2.336.26,7.66,7.66,0,0,1-1.817-.26,4.06,4.06,0,0,1-1.3-.649,1.745,1.745,0,0,1-.779-.909,2.407,2.407,0,0,1-.26-.909H82.5a3.653,3.653,0,0,0,.13,1.038,9.858,9.858,0,0,0,.519,1.428,5.43,5.43,0,0,0,1.038,1.558,5.533,5.533,0,0,0,1.558,1.428,8.8,8.8,0,0,0,2.466,1.038,15.364,15.364,0,0,0,7.4-.13,8.413,8.413,0,0,0,2.855-1.428,6.276,6.276,0,0,0,1.687-2.077,5.267,5.267,0,0,0,.519-2.466A6.182,6.182,0,0,0,98.854,16.733Z" transform="translate(24.58 1.698)"></path><path class="b" d="M80.654,12.254l-5.192,5.192V12.254H70.4l5.062-5.062L80.654,2V7.192h5.062Z" transform="translate(20.975 0.596)"></path></svg> 